<?xml version="1.0" encoding="UTF-8"?>
<svg id="a" xmlns="http://www.w3.org/2000/svg" width="64.53mm" height="19.13mm" viewBox="0 0 182.93 54.24">
    <path fill="#000023"
          d="M46.56,27.16h-10.86V.23h10.46c4.96,0,8.12,2.85,8.12,7.37.05,2.46-1.38,4.73-3.65,5.71,2.06.84,4.05,2.85,4.05,6.25,0,4.91-3.35,7.6-8.12,7.6ZM45.81,3.93h-6.01v7.67h6.06c2.6,0,4.4-1.36,4.4-3.86s-1.8-3.81-4.45-3.81ZM46.21,15.3h-6.41v8.21h6.41c2.81,0,4.45-1.75,4.45-4.12s-1.61-4.09-4.45-4.09Z"/>
    <path fill="#000023"
          d="M68.81,27.16v-1.94c-2.67,2.71-6.97,2.88-9.83.4-1.5-1.45-1.94-3.25-1.94-5.4v-12.21h3.86v11.67c0,2.99,1.71,4.26,3.86,4.26s3.95-1.31,3.95-4.26v-11.67h3.86v19.14h-3.77v.02Z"/>
    <path fill="#000023"
          d="M86.33,12.49c-.89-.89-1.54-1.26-2.85-1.26-2.06,0-3.81,1.66-3.81,4.3v11.63h-3.86V8h3.77v2.06c.96-1.36,2.95-2.29,5.1-2.29,1.71-.09,3.37.56,4.56,1.8l-2.9,2.9v.02Z"/>
    <path fill="#000023"
          d="M103.85,25.66c-1.26,1.17-2.95,1.78-4.66,1.71-2.01,0-3.65-.49-5.01-2.2v9.71h-3.86V8h3.77v2.01c1.45-1.75,3.04-2.29,5.05-2.29s3.65.66,4.7,1.71c1.85,1.9,2.15,4.96,2.15,8.07s-.3,6.25-2.15,8.12v.05ZM98.19,11.23c-3.51,0-4,2.95-4,6.36s.49,6.36,4,6.36,3.95-2.99,3.95-6.36-.49-6.36-3.95-6.36Z"/>
    <path fill="#000023"
          d="M120.32,27.37c-4.05,0-6.9-.96-9.52-3.56l2.67-2.67c1.97,1.97,4.16,2.6,6.9,2.6s5.54-1.5,5.54-4.16-.3-2.15-1.05-2.81c-.66-.61-1.59-.96-2.95-1.15l-3.16-.44c-2.2-.35-3.91-1.01-5.05-2.15-1.31-1.24-1.97-2.95-1.97-5.17,0-4.7,3.39-7.86,9.01-7.86s6.06.91,8.35,3.06l-2.6,2.6c-1.66-1.59-3.65-2.06-5.92-2.06s-4.87,1.75-4.87,4.16c-.05.94.3,1.85.96,2.5.66.61,1.5.96,2.95,1.24l3.21.49c2.46.4,3.81.91,4.96,2.01,1.45,1.31,2.2,3.16,2.2,5.54.05,4.91-3.95,7.86-9.62,7.86l-.05-.05Z"/>
    <path fill="#000023"
          d="M143.72,27.16v-1.94c-2.67,2.71-6.97,2.88-9.83.4-1.5-1.45-1.94-3.25-1.94-5.4v-12.21h3.86v11.67c0,2.99,1.71,4.26,3.86,4.26s3.95-1.31,3.95-4.26v-11.67h3.86v19.14h-3.77v.02Z"/>
    <path fill="#000023" d="M150.57,4.23V.16h4.09v4.09h-4.09v-.02ZM150.71,27.16V8h3.86v19.14h-3.86v.02Z"/>
    <path fill="#000023"
          d="M163.58,27.16c-3.6,0-5.26-2.55-5.26-5.31v-10.9h-2.2v-2.95h2.2V2.53h3.86v5.5h3.7v2.95h-3.7v10.67c0,1.4.66,2.25,2.11,2.25h1.59v3.3h-2.29v-.02Z"/>
    <path fill="#000023"
          d="M170.48,18.69c0,3.35,1.71,5.36,4.87,5.36s3.3-.61,4.66-1.97l2.46,2.29c-1.97,1.97-3.81,2.99-7.16,2.99-4.8,0-8.61-2.55-8.61-9.83s3.21-9.8,8.12-9.8,8.12,3.7,8.12,9.26v1.61l-12.47.09.02-.02ZM178.55,13.41c-.98-2.11-3.46-2.99-5.57-2.04h0c-.89.42-1.61,1.12-2.01,2.01-.35.82-.51,1.71-.49,2.6h8.61c0-.89-.19-1.78-.54-2.6h0v.02Z"/>
    <rect fill="#0094ff" y=".12" width="27.14" height="27.14"/>
    <polygon fill="#fff"
             points="14.67 23.51 12.56 23.51 12.56 20.4 15.37 16.89 12.56 16.89 12.56 12.63 7.37 12.63 12.56 6.29 12.56 3.88 14.67 3.88 14.67 7.04 11.81 10.5 14.67 10.5 14.67 14.79 19.82 14.79 14.67 21.15 14.67 23.51"/>
    <path fill="#0094ff"
          d="M44.29,52.76c-.89.89-2.13,1.33-3.67,1.33h-4.94v-14.69h4.94c1.54,0,2.78.44,3.67,1.33,1.4,1.4,1.43,3.81,1.43,6.01s0,4.61-1.43,6.01h0ZM43.52,41.53c-.84-.89-1.99-1.15-3.16-1.15h-3.56v12.7h3.56c1.17,0,2.32-.26,3.16-1.15,1.1-1.15,1.1-3.28,1.1-5.22s0-4.07-1.1-5.22v.02Z"/>
    <path fill="#0094ff"
          d="M56.78,54.09l-1.29-3.58h-6.85l-1.29,3.58h-1.19l5.4-14.69h.98l5.4,14.69h-1.19.02ZM48.99,49.53h6.15l-3.06-8.66-3.06,8.66h-.02Z"/>
    <path fill="#0094ff" d="M74.61,40.4v13.71h-1.12v-13.71h-4.37v-.98h9.9v.98h-4.4Z"/>
    <path fill="#0094ff"
          d="M63.51,54.24c-2.17,0-3.56-.6-4.9-1.95l.79-.79c1.32,1.32,2.42,1.74,4.18,1.74,2.34,0,3.79-1.12,3.79-3.04,0-.89-.25-1.59-.81-2.07-.52-.46-.95-.6-2.13-.79l-1.72-.27c-1.12-.17-1.99-.5-2.63-1.06-.77-.64-1.16-1.55-1.16-2.73,0-2.46,1.74-4.04,4.57-4.04,1.82,0,2.98.5,4.24,1.59l-.72.72c-.87-.83-1.84-1.37-3.58-1.37-2.15,0-3.41,1.16-3.41,3.04,0,.85.23,1.51.74,1.95.52.43,1.28.72,2.11.85l1.72.27c1.37.21,1.95.43,2.63,1.01.79.68,1.26,1.63,1.26,2.84,0,2.48-1.88,4.08-4.97,4.08Z"/>
</svg>