<svg enable-background="new 0 0 276 89" viewBox="0 0 276 89" xmlns="http://www.w3.org/2000/svg">
    <path d="m149.6 12.2c2.9 0 5.4 1 7 2.5 2.8 2.8 3.2 7.4 3.2 12.1s-.5 9.3-3.2 12.2c-1.6 1.6-4 2.5-7 2.5-3.1 0-5.4-.7-7.5-3.3v14.5h-5.8v-40.1h5.7v3.1c2.2-2.7 4.6-3.5 7.6-3.5zm-57.3.4v17.4c0 4.5 2.5 6.4 5.8 6.4 3.2 0 5.9-2 5.9-6.4v-17.4h5.8v28.7h-5.6v-2.9c-2 2.1-4.8 3.3-7.6 3.2-2.6.1-5.2-.9-7.1-2.6-2.2-2.1-2.9-4.9-2.9-8.1v-18.3zm112.3 0v17.4c0 4.5 2.5 6.4 5.8 6.4 3.2 0 5.9-2 5.9-6.4v-17.4h5.8v28.7h-5.6v-2.9c-2 2.1-4.8 3.3-7.6 3.2-2.6.1-5.2-.9-7.1-2.6-2.2-2.1-2.9-4.9-2.9-8.1v-18.3zm-22.7-12c5.4 0 9.1 1.4 12.5 4.6l-3.9 3.8c-2.5-2.4-5.4-3.1-8.9-3.1-4.8 0-7.3 2.6-7.3 6.3-.1 1.4.4 2.8 1.5 3.7 1 .9 2.2 1.5 4.4 1.8l4.8.7c3.7.6 5.7 1.4 7.5 3 2.2 2 3.3 4.7 3.3 8.3 0 7.4-6 11.8-14.5 11.8-6.1 0-10.4-1.4-14.3-5.3l4-4c2.9 2.9 6.3 3.9 10.4 3.9 5.3 0 8.3-2.3 8.3-6.2 0-1.8-.5-3.2-1.6-4.2-1-.9-2.4-1.4-4.4-1.7l-4.8-.7c-3.3-.5-5.8-1.5-7.6-3.2-2-1.8-3-4.4-3-7.8.1-6.9 5.2-11.7 13.6-11.7zm81.2 11.6c7.7 0 12.2 5.5 12.2 13.9v2.4h-18.6c0 5 2.5 8 7.3 8 3.2 0 4.9-.9 7-2.9l3.7 3.5c-3 2.9-5.7 4.5-10.8 4.5-7.2 0-12.9-3.8-12.9-14.7-.1-9.4 4.7-14.7 12.1-14.7zm-30.4.4v28.7h-5.8v-28.7zm-162.6-11.6c7.5 0 12.2 4.2 12.2 11 .1 3.7-2.1 7.1-5.4 8.5 3.1 1.2 6.1 4.2 6.1 9.3 0 7.4-5 11.4-12.2 11.4h-16.4v-40.2zm64.6 13.9-4.4 4.4c-1.3-1.3-2.3-1.9-4.3-1.9-3.1 0-5.7 2.5-5.7 6.5v17.4h-5.8v-28.7h5.7v3.1c1.5-2 4.4-3.4 7.6-3.4 2.7-.2 5.2.8 6.9 2.6zm109.5-10.5v8.2h5.6v4.4h-5.6v16c0 2.1 1 3.3 3.2 3.3h2.4v4.9h-3.5c-5.4 0-7.9-3.8-7.9-8v-16.2h-3.3v-4.4h3.3v-8.2zm-96.1 13c-5.3 0-6 4.4-6 9.5s.7 9.6 6 9.6 5.9-4.5 5.9-9.6-.6-9.5-5.9-9.5zm-77.9 6.1h-9.6v12.3h9.6c4.2 0 6.6-2.6 6.6-6.2s-2.4-6.1-6.6-6.1zm192.8-6.5c-2.4 0-4.7 1.4-5.7 3.6-.5 1.2-.8 2.5-.7 3.9h12.9c0-1.3-.3-2.7-.8-3.9-1-2.1-3.2-3.6-5.7-3.6zm-193.4-10.5h-9.1v11.5h9.1c3.9 0 6.6-2 6.6-5.8 0-3.7-2.7-5.7-6.6-5.7zm163.3-5.7v6.1h-6.1v-6.1z"
          fill="#000023"/>
    <path d="m41.6.8h-40.7v40.7h40.7z" fill="#0094ff"/>
    <path d="m22.8 35.8h-3.2v-4.7l4.3-5.2h-4.3v-6.4h-7.6l7.7-9.5v-3.6h3.2v4.7l-4.3 5.2h4.3v6.4h7.7l-7.7 9.5v3.6z" fill="#fff"/>
    <path d="m124.1 66.4c1.3-.1 2.7.4 3.7 1.3 1.5 1.5 1.9 4 1.9 6.3s-.4 4.8-1.9 6.3c-1 .9-2.3 1.4-3.7 1.3-1.7.1-3.4-.7-4.4-2.1v9h-1.6v-22h1.6v1.9c1-1.4 2.7-2.2 4.4-2zm-26.1 0c3.7 0 6 2.7 6 7.3v.7h-10.4c0 3.8 1.7 5.9 4.9 5.9 1.6.1 3.1-.6 4.1-1.8l1.2.9c-1.4 1.5-3.3 2.4-5.4 2.3-4.1 0-6.4-2.6-6.4-7.6 0-4.9 2.2-7.7 6-7.7zm70.1 0c3.8 0 6 2.7 6 7.3v.7h-10.4c0 3.8 1.7 5.9 4.9 5.9 1.6.1 3.1-.6 4.1-1.8l1.2.9c-1.4 1.5-3.3 2.4-5.4 2.3-4.1 0-6.4-2.6-6.4-7.6 0-4.9 2.2-7.7 6-7.7zm42.1-7v22h-1.6v-1.9c-1 1.4-2.7 2.2-4.4 2.1-1.3.1-2.7-.4-3.7-1.3-1.5-1.5-1.9-4-1.9-6.3 0-2.4.4-4.8 1.9-6.3 1-.9 2.3-1.4 3.7-1.3 1.7-.1 3.4.7 4.4 2.1v-9h1.6zm-50.9 8.5-1.1 1.1c-1.2-.9-2.7-1.3-4.2-1.3-2.5 0-3.8 1-3.8 2.9 0 1.6.9 2.3 3 2.5l2.4.2c2.5.2 4.4 1 4.4 3.9 0 2.7-2.3 4.4-6 4.4-2.6 0-4.5-.7-6.1-2.1l1.1-1.1c1.3 1.3 3.1 1.9 4.9 1.8 2.9 0 4.5-1 4.5-3 0-1.6-.9-2.3-2.9-2.5l-2.5-.2c-3-.2-4.5-1.5-4.5-3.9 0-2.6 2.1-4.2 5.4-4.2 2-.1 3.9.5 5.4 1.5zm82.7.1c1.6 1.6 1.9 3.9 1.9 6s-.3 4.4-1.9 6c-2.3 2.2-6 2.2-8.3 0-1.6-1.6-1.9-3.9-1.9-6s.3-4.4 1.9-6c2.3-2.2 5.9-2.2 8.3 0zm-125.6-.2-1.1 1.1c-.7-.8-1.7-1.2-2.8-1.2-2.6 0-4 2.1-4 4.5v9.2h-1.6v-14.8h1.6v2c1-1.4 2.6-2.2 4.4-2.2 1.2-.1 2.5.4 3.5 1.4zm25.9 0-1.1 1.1c-.7-.8-1.7-1.2-2.8-1.2-2.6 0-4 2.1-4 4.5v9.2h-1.6v-14.8h1.6v2c1-1.4 2.6-2.2 4.4-2.2 1.3-.1 2.6.4 3.5 1.4zm112.4-1.4c2.3.8 3.8 3.1 3.6 5.5v9.5h-1.6v-9.3c0-2.9-1.4-4.5-4.1-4.5s-4.2 1.6-4.2 4.5v9.3h-1.6v-14.9h1.6v1.8c1.5-1.9 4-2.7 6.3-1.9zm-57.7-7v1.5h-11.7v8.7h10v1.5h-10v8.9h11.7v1.5h-13.4v-22h13.4zm24.4 2.4v4.8h3.4v1.2h-3.4v9.9c0 1.6.7 2.5 2.3 2.5h1.1v1.4h-1.4c-2.4 0-3.6-1.6-3.6-3.9v-9.9h-2v-1.2h2v-4.8zm-142.9 4.7c2.3.8 3.8 3.1 3.6 5.5v9.5h-1.6v-9.3c0-2.9-1.4-4.5-4.1-4.5s-4.2 1.6-4.2 4.5v9.3h-1.6v-15h1.6v1.8c1.5-1.9 4-2.7 6.3-1.8zm-10.6-7.1v1.5h-11.7v8.7h10v1.5h-10v8.9h11.7v1.5h-13.4v-22h13.4zm147.6 7.1v14.9h-1.6v-14.9zm-128.1-4.7v4.8h3.4v1.2h-3.4v9.9c0 1.6.7 2.5 2.3 2.5h1.1v1.4h-1.4c-2.4 0-3.6-1.6-3.6-3.9v-9.9h-2v-1.2h2v-4.8zm58.3 4.7v14.9h-1.6v-14.9zm83.1 0v14.9h-1.6v-14.9zm5.9 2.5c-1.2 1.2-1.3 3.1-1.3 4.8v.2c0 1.7.1 3.7 1.3 5 1.7 1.7 4.5 1.7 6.2 0 1.2-1.2 1.3-3.1 1.3-4.8v-.2c0-1.7-.1-3.7-1.3-5-1.7-1.7-4.5-1.7-6.2 0zm-30.3-1.2c-3.7 0-4.2 3.2-4.2 6.3s.6 6.3 4.2 6.3c3.7 0 4.2-3.2 4.2-6.3s-.6-6.3-4.2-6.3zm-80.5 0c-3.7 0-4.2 3.2-4.2 6.3s.6 6.3 4.2 6.3 4.2-3 4.2-6.1v-.2c0-3.2-.5-6.3-4.2-6.3zm44.2 0c-1.7 0-3.2 1-3.9 2.5-.4.9-.6 1.9-.5 2.8h8.8c0-1-.2-1.9-.5-2.8-.7-1.6-2.2-2.6-3.9-2.5zm-70.1 0c-1.7 0-3.2 1-3.9 2.5-.4.9-.6 1.9-.5 2.8h8.8c0-1-.2-1.9-.5-2.8-.7-1.6-2.2-2.6-3.9-2.5zm47.9-8.4v2h-2v-2zm69.8 0v2h-2v-2zm13.3 0v2h-2v-2z"
          fill="#0094ff"/>
</svg>